<svg width="64" height="64" viewBox="0 0 64 64" fill="none" xmlns="http://www.w3.org/2000/svg">
  <!-- Background circle -->
  <circle cx="32" cy="32" r="30" fill="#2563eb" stroke="#1e40af" stroke-width="2"/>

  <!-- Keyboard representation -->
  <rect x="12" y="20" width="40" height="24" rx="4" fill="white" stroke="#1e40af" stroke-width="1"/>

  <!-- Keys -->
  <rect x="16" y="24" width="4" height="4" rx="1" fill="#2563eb"/>
  <rect x="22" y="24" width="4" height="4" rx="1" fill="#2563eb"/>
  <rect x="28" y="24" width="4" height="4" rx="1" fill="#2563eb"/>
  <rect x="34" y="24" width="4" height="4" rx="1" fill="#2563eb"/>
  <rect x="40" y="24" width="4" height="4" rx="1" fill="#2563eb"/>
  <rect x="46" y="24" width="4" height="4" rx="1" fill="#2563eb"/>

  <rect x="18" y="30" width="4" height="4" rx="1" fill="#2563eb"/>
  <rect x="24" y="30" width="4" height="4" rx="1" fill="#2563eb"/>
  <rect x="30" y="30" width="4" height="4" rx="1" fill="#2563eb"/>
  <rect x="36" y="30" width="4" height="4" rx="1" fill="#2563eb"/>
  <rect x="42" y="30" width="4" height="4" rx="1" fill="#2563eb"/>

  <rect x="20" y="36" width="24" height="4" rx="1" fill="#2563eb"/>

  <!-- Switch indicator -->
  <circle cx="48" cy="16" r="8" fill="#10b981" stroke="white" stroke-width="2"/>
  <path d="M44 16 L46 18 L52 12" stroke="white" stroke-width="2" stroke-linecap="round" stroke-linejoin="round"/>
</svg>
